<svg width="794" height="159" viewBox="0 0 794 159" fill="none" xmlns="http://www.w3.org/2000/svg">
<path d="M38.1426 114.031V44.4219C38.1426 44.4219 52.5273 44.4219 81.2969 44.4219C88.2695 44.4219 94.2461 47.8496 99.2266 54.7051C104.266 61.502 106.785 69.6758 106.785 79.2266C106.785 88.8359 104.266 97.0391 99.2266 103.836C94.2461 110.633 88.2695 114.031 81.2969 114.031H38.1426ZM44.4707 107.703H81.2969C86.5117 107.703 90.9648 104.92 94.6562 99.3535C98.4062 93.7871 100.281 87.0781 100.281 79.2266C100.281 71.3164 98.4062 64.6074 94.6562 59.0996C90.9648 53.5332 86.5117 50.75 81.2969 50.75H44.4707V107.703ZM31.8145 120.359H81.2969C90.0273 120.359 97.5273 116.346 103.797 108.318C110.125 100.232 113.289 90.5352 113.289 79.2266C113.289 71.7852 111.824 64.9004 108.895 58.5723C106.023 52.2441 102.127 47.2637 97.2051 43.6309C92.3418 39.9395 87.0391 38.0938 81.2969 38.0938H31.8145V120.359ZM25.4863 126.688V31.7656H81.2969C88.1523 31.7656 94.5391 33.875 100.457 38.0938C106.375 42.3125 111.062 48.084 114.52 55.4082C118.035 62.6738 119.793 70.6133 119.793 79.2266C119.793 87.7812 118.035 95.7207 114.52 103.045C111.062 110.369 106.375 116.141 100.457 120.359C94.5391 124.578 88.1523 126.688 81.2969 126.688H25.4863ZM19.1582 133.016H81.2969C89.3242 133.016 96.7656 130.613 103.621 125.809C110.535 121.004 116.043 114.471 120.145 106.209C124.246 97.9473 126.297 88.9531 126.297 79.2266C126.297 69.5586 124.246 60.5938 120.145 52.332C116.043 44.0117 110.535 37.4492 103.621 32.6445C96.707 27.8398 89.2656 25.4375 81.2969 25.4375H19.1582V133.016ZM12.8301 139.344V19.1094H81.2969C90.4375 19.1094 98.9629 21.8047 106.873 27.1953C114.783 32.5273 121.082 39.8223 125.77 49.0801C130.457 58.3379 132.801 68.3867 132.801 79.2266C132.801 90.0664 130.457 100.115 125.77 109.373C121.082 118.631 114.783 125.955 106.873 131.346C98.9629 136.678 90.4375 139.344 81.2969 139.344H12.8301ZM6.50195 145.672H81.2969C88.9727 145.672 96.3848 143.914 103.533 140.398C110.682 136.883 116.863 132.166 122.078 126.248C127.293 120.33 131.453 113.27 134.559 105.066C137.723 96.8047 139.305 88.1914 139.305 79.2266C139.305 70.2617 137.723 61.6777 134.559 53.4746C131.453 45.2715 127.293 38.2109 122.078 32.293C116.863 26.3164 110.682 21.5703 103.533 18.0547C96.3848 14.5391 88.9727 12.7812 81.2969 12.7812H6.50195V145.672ZM81.2969 152H0.173828V6.45312H81.2969C92.7227 6.45312 103.387 9.70508 113.289 16.209C123.191 22.7129 131.072 31.5605 136.932 42.752C142.85 53.9434 145.809 66.1016 145.809 79.2266C145.809 89.0703 144.051 98.5039 140.535 107.527C137.078 116.492 132.449 124.227 126.648 130.73C120.848 137.234 113.963 142.42 105.994 146.287C98.084 150.096 89.8516 152 81.2969 152ZM197.752 6.45312H204.08V152H197.752V6.45312ZM185.096 6.45312H191.424V152H185.096V6.45312ZM172.439 6.45312H178.768V152H172.439V6.45312ZM159.783 6.45312H166.111V152H159.783V6.45312ZM324.139 81.9512L317.811 71.4922V6.45312H324.139V81.9512ZM336.795 102.693L330.467 92.0586V6.45312H336.795V102.693ZM349.451 123.699L343.123 112.977V6.45312H349.451V123.699ZM258.748 76.502L265.076 86.9609V152H258.748V76.502ZM246.092 55.7598L252.42 66.3945V152H246.092V55.7598ZM233.436 34.7539L239.764 45.4766V152H233.436V34.7539ZM235.633 6.45312H243.016L332.488 152H325.105L235.633 6.45312ZM250.574 6.45312H258.045L347.43 152H339.871L250.574 6.45312ZM265.428 6.45312H272.811L355.779 141.717V6.45312H362.107V152C362.107 152 359.617 152 354.637 152L265.428 6.45312ZM227.107 16.7363V152H220.779V6.45312C220.779 6.45312 223.299 6.45312 228.338 6.45312L317.547 152H310.252L227.107 16.7363ZM410.447 152H404.119V6.45312H410.447V152ZM397.791 152H391.463V6.45312H397.791V152ZM385.135 152H378.807V6.45312H385.135V152ZM423.104 120.359H490.428V126.688H423.104V133.016H490.428V139.344H423.104V145.672H490.428V152H416.775V6.45312H490.428V12.7812H423.104V19.1094H490.428V25.4375H423.104V31.7656H490.428V38.0938H423.104V63.4062H457.645V69.7344H423.104V76.0625H457.645V82.3906H423.104V88.7188H457.645V95.0469H423.104V120.359ZM553.885 79.5781H592.029C597.83 79.5781 602.723 77.7031 606.707 73.9531C610.75 70.2031 612.771 64.8711 612.771 57.957C612.771 52.8594 610.662 48.2891 606.443 44.2461C602.225 40.1445 597.42 38.0938 592.029 38.0938H537.713V152H531.385V31.7656H592.029C599.178 31.7656 605.477 34.4316 610.926 39.7637C616.375 45.0371 619.1 51.1016 619.1 57.957C619.1 66.3945 616.463 73.1621 611.189 78.2598C605.916 83.3574 599.529 85.9062 592.029 85.9062H553.885V79.5781ZM553.885 92.2344H592.029C601.17 92.2344 609.021 89.041 615.584 82.6543C622.146 76.209 625.428 67.9766 625.428 57.957C625.428 49.3438 622.059 41.7852 615.32 35.2812C608.641 28.7188 600.877 25.4375 592.029 25.4375H525.057V152H518.729V19.1094H592.029C599.002 19.1094 605.535 20.8965 611.629 24.4707C617.781 28.0449 622.674 32.8496 626.307 38.8848C629.939 44.8613 631.756 51.2188 631.756 57.957C631.756 69.5 627.83 79.168 619.979 86.9609C612.186 94.6953 602.869 98.5625 592.029 98.5625H553.885V92.2344ZM553.885 104.891H592.029C600.232 104.891 607.85 102.869 614.881 98.8262C621.912 94.7832 627.537 89.1582 631.756 81.9512C635.975 74.6855 638.084 66.6875 638.084 57.957C638.084 50.0469 635.975 42.6348 631.756 35.7207C627.596 28.748 621.971 23.1816 614.881 19.0215C607.791 14.8613 600.174 12.7812 592.029 12.7812H512.4V152H506.072V6.45312H592.029C601.229 6.45312 609.871 8.82617 617.957 13.5723C626.043 18.2598 632.459 24.5879 637.205 32.5566C642.01 40.4668 644.412 48.9336 644.412 57.957C644.412 68.3867 642.156 77.5566 637.645 85.4668C633.191 93.377 627.127 99.5586 619.451 104.012L635.799 152H629.119L613.475 107C611.131 107.938 609.344 108.582 608.113 108.934L622.791 152H616.111L601.785 110.428C601.258 110.545 599.383 110.75 596.16 111.043L609.783 152H603.104L589.656 111.219H583.943L596.775 152H590.096L577.176 111.219H553.885V104.891ZM550.369 152H544.041V44.4219H592.029C595.955 44.4219 599.324 45.7695 602.137 48.4648C605.008 51.1016 606.443 54.2656 606.443 57.957C606.443 68.1523 601.639 73.25 592.029 73.25H553.885V66.9219H592.029C594.549 66.9219 596.512 66.2773 597.918 64.9883C599.383 63.6406 600.115 61.2969 600.115 57.957C600.115 55.9062 599.324 54.207 597.742 52.8594C596.219 51.4531 594.314 50.75 592.029 50.75H550.369V152ZM689.5 54.6172C682.703 61.4141 679.305 69.6172 679.305 79.2266C679.305 88.8359 682.703 97.0391 689.5 103.836C696.297 110.633 704.5 114.031 714.109 114.031C723.719 114.031 731.922 110.633 738.719 103.836C745.516 97.0391 748.914 88.8359 748.914 79.2266C748.914 69.6172 745.516 61.4141 738.719 54.6172C731.922 47.8203 723.719 44.4219 714.109 44.4219C704.5 44.4219 696.297 47.8203 689.5 54.6172ZM676.229 95.2227C674.061 90.125 672.977 84.793 672.977 79.2266C672.977 73.6602 674.061 68.3574 676.229 63.3184C678.396 58.2207 681.326 53.8262 685.018 50.1348C688.709 46.4434 693.074 43.5137 698.113 41.3457C703.211 39.1777 708.543 38.0938 714.109 38.0938C719.676 38.0938 724.979 39.1777 730.018 41.3457C735.115 43.5137 739.51 46.4434 743.201 50.1348C746.893 53.8262 749.822 58.2207 751.99 63.3184C754.158 68.3574 755.242 73.6602 755.242 79.2266C755.242 84.793 754.158 90.125 751.99 95.2227C749.822 100.262 746.893 104.627 743.201 108.318C739.51 112.01 735.115 114.939 730.018 117.107C724.979 119.275 719.676 120.359 714.109 120.359C708.543 120.359 703.211 119.275 698.113 117.107C693.074 114.939 688.709 112.01 685.018 108.318C681.326 104.627 678.396 100.262 676.229 95.2227ZM672.977 55.4082C668.758 62.6738 666.648 70.6133 666.648 79.2266C666.648 87.8398 668.758 95.7793 672.977 103.045C677.254 110.311 683.025 116.082 690.291 120.359C697.557 124.578 705.496 126.688 714.109 126.688C722.723 126.688 730.662 124.578 737.928 120.359C745.193 116.082 750.936 110.311 755.154 103.045C759.432 95.7793 761.57 87.8398 761.57 79.2266C761.57 70.6133 759.432 62.6738 755.154 55.4082C750.936 48.1426 745.193 42.4004 737.928 38.1816C730.662 33.9043 722.723 31.7656 714.109 31.7656C705.496 31.7656 697.557 33.9043 690.291 38.1816C683.025 42.4004 677.254 48.1426 672.977 55.4082ZM667.527 106.209C662.723 97.9473 660.32 88.9531 660.32 79.2266C660.32 69.5 662.723 60.5059 667.527 52.2441C672.332 43.9824 678.865 37.4492 687.127 32.6445C695.389 27.8398 704.383 25.4375 714.109 25.4375C723.836 25.4375 732.83 27.8398 741.092 32.6445C749.354 37.4492 755.887 43.9824 760.691 52.2441C765.496 60.5059 767.898 69.5 767.898 79.2266C767.898 88.9531 765.496 97.9473 760.691 106.209C755.887 114.471 749.354 121.004 741.092 125.809C732.83 130.613 723.836 133.016 714.109 133.016C704.383 133.016 695.389 130.613 687.127 125.809C678.865 121.004 672.332 114.471 667.527 106.209ZM658.738 55.8477C655.574 63.2891 653.992 71.082 653.992 79.2266C653.992 87.3711 655.574 95.1641 658.738 102.605C661.902 110.047 666.15 116.463 671.482 121.854C676.873 127.186 683.289 131.434 690.73 134.598C698.172 137.762 705.965 139.344 714.109 139.344C722.254 139.344 730.047 137.762 737.488 134.598C744.93 131.434 751.316 127.186 756.648 121.854C762.039 116.463 766.316 110.047 769.48 102.605C772.645 95.1641 774.227 87.3711 774.227 79.2266C774.227 71.082 772.645 63.2891 769.48 55.8477C766.316 48.4062 762.039 42.0195 756.648 36.6875C751.316 31.2969 744.93 27.0195 737.488 23.8555C730.047 20.6914 722.254 19.1094 714.109 19.1094C705.965 19.1094 698.172 20.6914 690.73 23.8555C683.289 27.0195 676.873 31.2969 671.482 36.6875C666.15 42.0195 661.902 48.4062 658.738 55.8477ZM656.541 112.537C650.623 102.342 647.664 91.2383 647.664 79.2266C647.664 67.2148 650.623 56.1113 656.541 45.916C662.518 35.7207 670.604 27.6641 680.799 21.7461C690.994 15.7695 702.098 12.7812 714.109 12.7812C726.121 12.7812 737.225 15.7695 747.42 21.7461C757.615 27.6641 765.672 35.7207 771.59 45.916C777.566 56.1113 780.555 67.2148 780.555 79.2266C780.555 91.2383 777.566 102.342 771.59 112.537C765.672 122.732 757.615 130.818 747.42 136.795C737.225 142.713 726.121 145.672 714.109 145.672C702.098 145.672 690.994 142.713 680.799 136.795C670.604 130.818 662.518 122.732 656.541 112.537ZM647.049 51.0137C643.24 59.9785 641.336 69.3828 641.336 79.2266C641.336 89.0703 643.24 98.5039 647.049 107.527C650.916 116.492 656.102 124.227 662.605 130.73C669.109 137.234 676.844 142.42 685.809 146.287C694.832 150.096 704.266 152 714.109 152C723.953 152 733.357 150.096 742.322 146.287C751.346 142.42 759.109 137.234 765.613 130.73C772.117 124.227 777.273 116.492 781.082 107.527C784.949 98.5039 786.883 89.0703 786.883 79.2266C786.883 69.3828 784.949 59.9785 781.082 51.0137C777.273 41.9902 772.117 34.2266 765.613 27.7227C759.109 21.2188 751.346 16.0625 742.322 12.2539C733.357 8.38672 723.953 6.45312 714.109 6.45312C704.266 6.45312 694.832 8.38672 685.809 12.2539C676.844 16.0625 669.109 21.2188 662.605 27.7227C656.102 34.2266 650.916 41.9902 647.049 51.0137ZM641.248 109.988C637.088 100.203 635.008 89.9492 635.008 79.2266C635.008 68.5039 637.088 58.2793 641.248 48.5527C645.467 38.7676 651.092 30.3594 658.123 23.3281C665.213 16.2383 673.621 10.6133 683.348 6.45312C693.133 2.23438 703.387 0.125 714.109 0.125C724.832 0.125 735.057 2.23438 744.783 6.45312C754.568 10.6133 762.977 16.2383 770.008 23.3281C777.098 30.3594 782.723 38.7676 786.883 48.5527C791.102 58.2793 793.211 68.5039 793.211 79.2266C793.211 89.9492 791.102 100.203 786.883 109.988C782.723 119.715 777.098 128.123 770.008 135.213C762.977 142.244 754.568 147.84 744.783 152C735.057 156.219 724.832 158.328 714.109 158.328C703.387 158.328 693.133 156.219 683.348 152C673.621 147.84 665.213 142.244 658.123 135.213C651.092 128.123 645.467 119.715 641.248 109.988Z" fill="#FFD700"/>
</svg>
