<svg width="408" height="174" viewBox="0 0 408 174" fill="none" xmlns="http://www.w3.org/2000/svg">
<path d="M35.97 173.8C27.15 173.8 20.16 172.6 15 170.2C9.9 167.74 6.21 163.87 3.93 158.59C1.65 153.25 0.39 146.26 0.15 137.62C0.0900001 134.74 0.0600002 131.47 0.0600002 127.81C0.0600002 124.15 0.0900001 120.88 0.15 118H25.53C25.47 120.16 25.41 122.77 25.35 125.83C25.35 128.83 25.35 131.86 25.35 134.92C25.41 137.92 25.47 140.5 25.53 142.66C25.65 145.6 26.55 147.88 28.23 149.5C29.91 151.06 32.49 151.84 35.97 151.84C39.51 151.84 42.03 151.06 43.53 149.5C45.09 147.88 45.87 145.6 45.87 142.66V28H72.87V137.62C72.87 150.58 70.11 159.85 64.59 165.43C59.13 171.01 49.59 173.8 35.97 173.8ZM80.1867 172L100.167 28H142.647L162.627 172H134.907L131.847 141.94H110.967L107.907 172H80.1867ZM113.487 118.18H129.327L126.087 86.32L123.927 51.76H118.887L116.727 86.32L113.487 118.18ZM126.267 18.1V0.27999H144.087V18.1H126.267ZM98.7267 18.1V0.27999H116.547V18.1H98.7267ZM207.406 173.8C198.346 173.8 191.086 172.6 185.626 170.2C180.166 167.74 176.176 163.87 173.656 158.59C171.136 153.25 169.726 146.26 169.426 137.62C169.246 132.58 169.096 126.85 168.976 120.43C168.916 113.95 168.886 107.29 168.886 100.45C168.886 93.61 168.916 87.01 168.976 80.65C169.096 74.29 169.246 68.68 169.426 63.82C169.786 54.7 171.256 47.38 173.836 41.86C176.476 36.34 180.496 32.35 185.896 29.89C191.356 27.43 198.526 26.2 207.406 26.2C220.006 26.2 229.186 28.99 234.946 34.57C240.766 40.09 244.066 49.3 244.846 62.2C245.026 64.96 245.116 68.26 245.116 72.1C245.116 75.88 245.026 79.18 244.846 82H217.846C218.026 78.64 218.116 74.5 218.116 69.58C218.116 64.6 218.026 60.46 217.846 57.16C217.666 54.28 216.676 52.06 214.876 50.5C213.076 48.94 210.586 48.16 207.406 48.16C203.926 48.16 201.256 48.94 199.396 50.5C197.596 52.06 196.606 54.28 196.426 57.16C196.066 63.46 195.796 70.27 195.616 77.59C195.436 84.85 195.346 92.29 195.346 99.91C195.346 107.53 195.436 115 195.616 122.32C195.796 129.58 196.066 136.36 196.426 142.66C196.606 145.6 197.596 147.88 199.396 149.5C201.256 151.06 203.926 151.84 207.406 151.84C210.826 151.84 213.556 151.06 215.596 149.5C217.696 147.88 218.866 145.6 219.106 142.66C219.226 141.28 219.286 139.48 219.286 137.26C219.346 134.98 219.346 132.73 219.286 130.51C219.286 128.23 219.226 126.4 219.106 125.02H209.206V101.62H245.386C245.686 107.08 245.806 113.08 245.746 119.62C245.686 126.1 245.506 132.1 245.206 137.62C244.606 150.58 241.366 159.85 235.486 165.43C229.666 171.01 220.306 173.8 207.406 173.8ZM258.555 172V28H320.835V51.76H285.555V86.86H319.035V110.62H285.555V148.24H320.835V172H258.555ZM332.032 172V28H366.772C380.212 28 389.902 30.73 395.842 36.19C401.842 41.59 405.052 50.56 405.472 63.1C405.592 66.46 405.652 69.4 405.652 71.92C405.712 74.44 405.712 76.96 405.652 79.48C405.652 82 405.592 84.94 405.472 88.3C405.232 96.1 403.912 102.49 401.512 107.47C399.172 112.45 395.512 116.26 390.532 118.9L407.452 172H378.832L365.152 123.4H359.032V172H332.032ZM359.032 99.64H366.772C370.552 99.64 373.402 98.77 375.322 97.03C377.242 95.29 378.292 92.86 378.472 89.74C378.652 86.8 378.772 83.74 378.832 80.56C378.892 77.32 378.892 74.11 378.832 70.93C378.772 67.69 378.652 64.6 378.472 61.66C378.292 58.48 377.242 56.05 375.322 54.37C373.402 52.63 370.552 51.76 366.772 51.76H359.032V99.64Z" fill="#151515"/>
</svg>
