<svg width="561" height="163" viewBox="0 0 561 163" fill="none" xmlns="http://www.w3.org/2000/svg">
<path d="M64.6 161L38.32 113.3H30.94V161H0.16V34.64H51.82C61.78 34.64 70.24 36.38 77.2 39.86C84.28 43.34 89.56 48.14 93.04 54.26C96.52 60.26 98.26 66.98 98.26 74.42C98.26 82.82 95.86 90.32 91.06 96.92C86.38 103.52 79.42 108.2 70.18 110.96L99.34 161H64.6ZM30.94 91.52H50.02C55.66 91.52 59.86 90.14 62.62 87.38C65.5 84.62 66.94 80.72 66.94 75.68C66.94 70.88 65.5 67.1 62.62 64.34C59.86 61.58 55.66 60.2 50.02 60.2H30.94V91.52ZM177.342 162.26C165.462 162.26 154.542 159.5 144.582 153.98C134.742 148.46 126.882 140.78 121.002 130.94C115.242 120.98 112.362 109.82 112.362 97.46C112.362 85.1 115.242 74 121.002 64.16C126.882 54.32 134.742 46.64 144.582 41.12C154.542 35.6 165.462 32.84 177.342 32.84C189.222 32.84 200.082 35.6 209.922 41.12C219.882 46.64 227.682 54.32 233.322 64.16C239.082 74 241.962 85.1 241.962 97.46C241.962 109.82 239.082 120.98 233.322 130.94C227.562 140.78 219.762 148.46 209.922 153.98C200.082 159.5 189.222 162.26 177.342 162.26ZM177.342 134.18C187.422 134.18 195.462 130.82 201.462 124.1C207.582 117.38 210.642 108.5 210.642 97.46C210.642 86.3 207.582 77.42 201.462 70.82C195.462 64.1 187.422 60.74 177.342 60.74C167.142 60.74 158.982 64.04 152.862 70.64C146.862 77.24 143.862 86.18 143.862 97.46C143.862 108.62 146.862 117.56 152.862 124.28C158.982 130.88 167.142 134.18 177.342 134.18ZM213.342 0.439996V21.68H141.342V0.439996H213.342ZM372.126 161H341.346L289.866 83.06V161H259.086V34.64H289.866L341.346 112.94V34.64H372.126V161ZM425.217 34.64V161H394.437V34.64H425.217ZM560.563 161H529.783L478.303 83.06V161H447.523V34.64H478.303L529.783 112.94V34.64H560.563V161Z" fill="#BC002D"/>
</svg>
